<mxfile host="Electron" agent="Mozilla/5.0 (Macintosh; Intel Mac OS X 10_15_7) AppleWebKit/537.36 (KHTML, like Gecko) draw.io/24.7.5 Chrome/126.0.6478.183 Electron/31.3.0 Safari/537.36" version="24.7.5">
  <diagram name="第 1 页" id="4JnLTWsC_Iqi3sqXdAi-">
    <mxGraphModel dx="2110" dy="2009" grid="1" gridSize="10" guides="1" tooltips="1" connect="1" arrows="1" fold="1" page="1" pageScale="1" pageWidth="827" pageHeight="1169" math="0" shadow="0">
      <root>
        <mxCell id="0" />
        <mxCell id="1" parent="0" />
        <mxCell id="gs4jbbUHdtF3JDuSAHDA-1" value="价格模版" style="swimlane;childLayout=stackLayout;horizontal=1;startSize=50;horizontalStack=0;rounded=1;fontSize=14;fontStyle=0;strokeWidth=2;resizeParent=0;resizeLast=1;shadow=0;dashed=0;align=center;arcSize=4;whiteSpace=wrap;html=1;" vertex="1" parent="1">
          <mxGeometry x="280" y="170" width="160" height="180" as="geometry" />
        </mxCell>
        <mxCell id="gs4jbbUHdtF3JDuSAHDA-2" value="&lt;span style=&quot;font-size: 14px;&quot;&gt;模版id&lt;/span&gt;&lt;br&gt;&lt;div&gt;geo-zone id&lt;/div&gt;&lt;div&gt;&lt;span style=&quot;font-size: 14px;&quot;&gt;渠道&lt;/span&gt;&lt;/div&gt;&lt;div&gt;&lt;span style=&quot;font-size: 14px;&quot;&gt;状态&lt;/span&gt;&lt;/div&gt;&lt;div&gt;&lt;span style=&quot;font-size: 14px;&quot;&gt;生效时间&lt;/span&gt;&lt;/div&gt;" style="align=left;strokeColor=none;fillColor=none;spacingLeft=4;fontSize=12;verticalAlign=top;resizable=0;rotatable=0;part=1;html=1;" vertex="1" parent="gs4jbbUHdtF3JDuSAHDA-1">
          <mxGeometry y="50" width="160" height="130" as="geometry" />
        </mxCell>
        <mxCell id="gs4jbbUHdtF3JDuSAHDA-3" value="geo-zone" style="swimlane;childLayout=stackLayout;horizontal=1;startSize=50;horizontalStack=0;rounded=1;fontSize=14;fontStyle=0;strokeWidth=2;resizeParent=0;resizeLast=1;shadow=0;dashed=0;align=center;arcSize=4;whiteSpace=wrap;html=1;" vertex="1" parent="1">
          <mxGeometry x="-20" y="170" width="160" height="180" as="geometry" />
        </mxCell>
        <mxCell id="gs4jbbUHdtF3JDuSAHDA-4" value="&lt;div&gt;&lt;span style=&quot;font-size: 14px;&quot;&gt;geo-zone id&lt;/span&gt;&lt;/div&gt;&lt;span style=&quot;font-size: 14px;&quot;&gt;名称&lt;/span&gt;&lt;br&gt;&lt;div&gt;门店id&lt;/div&gt;&lt;div&gt;&lt;span style=&quot;font-size: 14px;&quot;&gt;状态&lt;/span&gt;&lt;/div&gt;&lt;div&gt;&lt;br&gt;&lt;/div&gt;" style="align=left;strokeColor=none;fillColor=none;spacingLeft=4;fontSize=12;verticalAlign=top;resizable=0;rotatable=0;part=1;html=1;" vertex="1" parent="gs4jbbUHdtF3JDuSAHDA-3">
          <mxGeometry y="50" width="160" height="130" as="geometry" />
        </mxCell>
        <mxCell id="gs4jbbUHdtF3JDuSAHDA-5" value="商品价格" style="swimlane;childLayout=stackLayout;horizontal=1;startSize=50;horizontalStack=0;rounded=1;fontSize=14;fontStyle=0;strokeWidth=2;resizeParent=0;resizeLast=1;shadow=0;dashed=0;align=center;arcSize=4;whiteSpace=wrap;html=1;" vertex="1" parent="1">
          <mxGeometry x="590" y="170" width="160" height="180" as="geometry" />
        </mxCell>
        <mxCell id="gs4jbbUHdtF3JDuSAHDA-6" value="&lt;span style=&quot;font-size: 14px;&quot;&gt;模版id&lt;/span&gt;&lt;br&gt;&lt;div&gt;商品 SPU ID&lt;/div&gt;&lt;div&gt;&lt;span style=&quot;font-size: 14px;&quot;&gt;商品 SKU ID&lt;/span&gt;&lt;/div&gt;&lt;div&gt;&lt;span style=&quot;font-size: 14px;&quot;&gt;价格&lt;/span&gt;&lt;/div&gt;&lt;div&gt;&lt;span style=&quot;font-size: 14px;&quot;&gt;&lt;br&gt;&lt;/span&gt;&lt;/div&gt;&lt;div&gt;&lt;br&gt;&lt;/div&gt;" style="align=left;strokeColor=none;fillColor=none;spacingLeft=4;fontSize=12;verticalAlign=top;resizable=0;rotatable=0;part=1;html=1;" vertex="1" parent="gs4jbbUHdtF3JDuSAHDA-5">
          <mxGeometry y="50" width="160" height="130" as="geometry" />
        </mxCell>
        <mxCell id="gs4jbbUHdtF3JDuSAHDA-7" value="价格变更记录" style="swimlane;childLayout=stackLayout;horizontal=1;startSize=50;horizontalStack=0;rounded=1;fontSize=14;fontStyle=0;strokeWidth=2;resizeParent=0;resizeLast=1;shadow=0;dashed=0;align=center;arcSize=4;whiteSpace=wrap;html=1;" vertex="1" parent="1">
          <mxGeometry x="590" y="460" width="160" height="180" as="geometry" />
        </mxCell>
        <mxCell id="gs4jbbUHdtF3JDuSAHDA-8" value="&lt;span style=&quot;font-size: 14px;&quot;&gt;模版id&lt;/span&gt;&lt;br&gt;&lt;div&gt;商品 SPU ID&lt;/div&gt;&lt;div&gt;&lt;span style=&quot;font-size: 14px;&quot;&gt;商品 SKU ID&lt;/span&gt;&lt;/div&gt;&lt;div&gt;&lt;span style=&quot;font-size: 14px;&quot;&gt;价格&lt;/span&gt;&lt;/div&gt;&lt;div&gt;&lt;span style=&quot;font-size: 14px;&quot;&gt;&lt;br&gt;&lt;/span&gt;&lt;/div&gt;&lt;div&gt;&lt;br&gt;&lt;/div&gt;" style="align=left;strokeColor=none;fillColor=none;spacingLeft=4;fontSize=12;verticalAlign=top;resizable=0;rotatable=0;part=1;html=1;" vertex="1" parent="gs4jbbUHdtF3JDuSAHDA-7">
          <mxGeometry y="50" width="160" height="130" as="geometry" />
        </mxCell>
        <mxCell id="gs4jbbUHdtF3JDuSAHDA-11" value="价格审批" style="swimlane;childLayout=stackLayout;horizontal=1;startSize=50;horizontalStack=0;rounded=1;fontSize=14;fontStyle=0;strokeWidth=2;resizeParent=0;resizeLast=1;shadow=0;dashed=0;align=center;arcSize=4;whiteSpace=wrap;html=1;fillColor=#E6E6E6;" vertex="1" parent="1">
          <mxGeometry x="280" y="-120" width="160" height="130" as="geometry" />
        </mxCell>
        <mxCell id="gs4jbbUHdtF3JDuSAHDA-12" value="&lt;span style=&quot;font-size: 14px;&quot;&gt;模版id&lt;/span&gt;&lt;br&gt;&lt;div&gt;审批状态&lt;/div&gt;&lt;div&gt;......&lt;/div&gt;" style="align=left;strokeColor=none;fillColor=none;spacingLeft=4;fontSize=12;verticalAlign=top;resizable=0;rotatable=0;part=1;html=1;" vertex="1" parent="gs4jbbUHdtF3JDuSAHDA-11">
          <mxGeometry y="50" width="160" height="80" as="geometry" />
        </mxCell>
        <mxCell id="gs4jbbUHdtF3JDuSAHDA-13" value="同步任务" style="swimlane;childLayout=stackLayout;horizontal=1;startSize=50;horizontalStack=0;rounded=1;fontSize=14;fontStyle=0;strokeWidth=2;resizeParent=0;resizeLast=1;shadow=0;dashed=0;align=center;arcSize=4;whiteSpace=wrap;html=1;" vertex="1" parent="1">
          <mxGeometry x="280" y="460" width="160" height="180" as="geometry" />
        </mxCell>
        <mxCell id="gs4jbbUHdtF3JDuSAHDA-14" value="&lt;div&gt;&lt;span style=&quot;font-size: 14px;&quot;&gt;模版id&lt;/span&gt;&lt;/div&gt;&lt;span style=&quot;font-size: 14px;&quot;&gt;任务类型&lt;/span&gt;&lt;div&gt;&lt;span style=&quot;font-size: 14px;&quot;&gt;执行时间&lt;/span&gt;&lt;/div&gt;&lt;div&gt;同步信息（sku/价格）&lt;br&gt;&lt;div&gt;&lt;span style=&quot;font-size: 14px; background-color: initial;&quot;&gt;状态&lt;/span&gt;&lt;br&gt;&lt;/div&gt;&lt;div&gt;&lt;span style=&quot;font-size: 14px;&quot;&gt;同步结果&lt;/span&gt;&lt;/div&gt;&lt;div&gt;&lt;span style=&quot;font-size: 14px;&quot;&gt;&lt;br&gt;&lt;/span&gt;&lt;/div&gt;&lt;div&gt;&lt;br&gt;&lt;/div&gt;&lt;/div&gt;" style="align=left;strokeColor=none;fillColor=none;spacingLeft=4;fontSize=12;verticalAlign=top;resizable=0;rotatable=0;part=1;html=1;" vertex="1" parent="gs4jbbUHdtF3JDuSAHDA-13">
          <mxGeometry y="50" width="160" height="130" as="geometry" />
        </mxCell>
        <mxCell id="gs4jbbUHdtF3JDuSAHDA-15" value="任务明细" style="swimlane;childLayout=stackLayout;horizontal=1;startSize=50;horizontalStack=0;rounded=1;fontSize=14;fontStyle=0;strokeWidth=2;resizeParent=0;resizeLast=1;shadow=0;dashed=0;align=center;arcSize=4;whiteSpace=wrap;html=1;" vertex="1" parent="1">
          <mxGeometry x="-10" y="495" width="160" height="180" as="geometry" />
        </mxCell>
        <mxCell id="gs4jbbUHdtF3JDuSAHDA-16" value="&lt;div&gt;&lt;span style=&quot;font-size: 14px;&quot;&gt;任务id&lt;/span&gt;&lt;/div&gt;&lt;div&gt;同步信息（sku/价格）&lt;br&gt;&lt;span style=&quot;font-size: 14px;&quot;&gt;同步范围（门店/渠道）&lt;br&gt;&lt;/span&gt;&lt;div&gt;&lt;div&gt;&lt;span style=&quot;font-size: 14px;&quot;&gt;&lt;br&gt;&lt;/span&gt;&lt;/div&gt;&lt;div&gt;&lt;br&gt;&lt;/div&gt;&lt;/div&gt;&lt;/div&gt;" style="align=left;strokeColor=none;fillColor=none;spacingLeft=4;fontSize=12;verticalAlign=top;resizable=0;rotatable=0;part=1;html=1;" vertex="1" parent="gs4jbbUHdtF3JDuSAHDA-15">
          <mxGeometry y="50" width="160" height="130" as="geometry" />
        </mxCell>
        <mxCell id="gs4jbbUHdtF3JDuSAHDA-17" style="rounded=0;orthogonalLoop=1;jettySize=auto;html=1;exitX=0;exitY=0.25;exitDx=0;exitDy=0;entryX=1;entryY=0.5;entryDx=0;entryDy=0;endArrow=none;endFill=0;" edge="1" parent="1" source="gs4jbbUHdtF3JDuSAHDA-14" target="gs4jbbUHdtF3JDuSAHDA-16">
          <mxGeometry relative="1" as="geometry" />
        </mxCell>
        <mxCell id="gs4jbbUHdtF3JDuSAHDA-18" value="&lt;font style=&quot;font-size: 20px;&quot;&gt;n:1&lt;/font&gt;" style="edgeLabel;html=1;align=center;verticalAlign=middle;resizable=0;points=[];" vertex="1" connectable="0" parent="gs4jbbUHdtF3JDuSAHDA-17">
          <mxGeometry x="0.0523" y="2" relative="1" as="geometry">
            <mxPoint as="offset" />
          </mxGeometry>
        </mxCell>
        <mxCell id="gs4jbbUHdtF3JDuSAHDA-19" style="edgeStyle=orthogonalEdgeStyle;rounded=0;orthogonalLoop=1;jettySize=auto;html=1;exitX=0.5;exitY=1;exitDx=0;exitDy=0;entryX=0.5;entryY=0;entryDx=0;entryDy=0;endArrow=none;endFill=0;" edge="1" parent="1" source="gs4jbbUHdtF3JDuSAHDA-6" target="gs4jbbUHdtF3JDuSAHDA-7">
          <mxGeometry relative="1" as="geometry" />
        </mxCell>
        <mxCell id="gs4jbbUHdtF3JDuSAHDA-20" value="&lt;font style=&quot;font-size: 20px;&quot;&gt;1:n&lt;/font&gt;" style="edgeLabel;html=1;align=center;verticalAlign=middle;resizable=0;points=[];" vertex="1" connectable="0" parent="gs4jbbUHdtF3JDuSAHDA-19">
          <mxGeometry x="-0.1523" y="1" relative="1" as="geometry">
            <mxPoint as="offset" />
          </mxGeometry>
        </mxCell>
        <mxCell id="gs4jbbUHdtF3JDuSAHDA-21" style="edgeStyle=orthogonalEdgeStyle;rounded=0;orthogonalLoop=1;jettySize=auto;html=1;exitX=1;exitY=0.25;exitDx=0;exitDy=0;entryX=0;entryY=0.25;entryDx=0;entryDy=0;endArrow=none;endFill=0;" edge="1" parent="1" source="gs4jbbUHdtF3JDuSAHDA-2" target="gs4jbbUHdtF3JDuSAHDA-6">
          <mxGeometry relative="1" as="geometry" />
        </mxCell>
        <mxCell id="gs4jbbUHdtF3JDuSAHDA-22" value="&lt;font style=&quot;font-size: 20px;&quot;&gt;1:n&lt;/font&gt;" style="edgeLabel;html=1;align=center;verticalAlign=middle;resizable=0;points=[];" vertex="1" connectable="0" parent="gs4jbbUHdtF3JDuSAHDA-21">
          <mxGeometry x="0.0333" y="-1" relative="1" as="geometry">
            <mxPoint as="offset" />
          </mxGeometry>
        </mxCell>
        <mxCell id="gs4jbbUHdtF3JDuSAHDA-23" style="edgeStyle=orthogonalEdgeStyle;rounded=0;orthogonalLoop=1;jettySize=auto;html=1;exitX=0;exitY=0.25;exitDx=0;exitDy=0;entryX=1;entryY=0.25;entryDx=0;entryDy=0;endArrow=none;endFill=0;" edge="1" parent="1" source="gs4jbbUHdtF3JDuSAHDA-2" target="gs4jbbUHdtF3JDuSAHDA-4">
          <mxGeometry relative="1" as="geometry" />
        </mxCell>
        <mxCell id="gs4jbbUHdtF3JDuSAHDA-24" value="&lt;font style=&quot;font-size: 20px;&quot;&gt;n:1&lt;/font&gt;" style="edgeLabel;html=1;align=center;verticalAlign=middle;resizable=0;points=[];" vertex="1" connectable="0" parent="gs4jbbUHdtF3JDuSAHDA-23">
          <mxGeometry x="-0.0357" y="-1" relative="1" as="geometry">
            <mxPoint as="offset" />
          </mxGeometry>
        </mxCell>
        <mxCell id="gs4jbbUHdtF3JDuSAHDA-25" style="edgeStyle=orthogonalEdgeStyle;rounded=0;orthogonalLoop=1;jettySize=auto;html=1;exitX=0.5;exitY=1;exitDx=0;exitDy=0;entryX=0.5;entryY=0;entryDx=0;entryDy=0;endArrow=none;endFill=0;" edge="1" parent="1" source="gs4jbbUHdtF3JDuSAHDA-2" target="gs4jbbUHdtF3JDuSAHDA-13">
          <mxGeometry relative="1" as="geometry" />
        </mxCell>
        <mxCell id="gs4jbbUHdtF3JDuSAHDA-26" value="&lt;font style=&quot;font-size: 20px;&quot;&gt;1:n&lt;/font&gt;" style="edgeLabel;html=1;align=center;verticalAlign=middle;resizable=0;points=[];" vertex="1" connectable="0" parent="gs4jbbUHdtF3JDuSAHDA-25">
          <mxGeometry x="0.0409" relative="1" as="geometry">
            <mxPoint as="offset" />
          </mxGeometry>
        </mxCell>
        <mxCell id="gs4jbbUHdtF3JDuSAHDA-27" style="edgeStyle=orthogonalEdgeStyle;rounded=0;orthogonalLoop=1;jettySize=auto;html=1;exitX=0.5;exitY=1;exitDx=0;exitDy=0;entryX=0.5;entryY=0;entryDx=0;entryDy=0;endArrow=none;endFill=0;dashed=1;dashPattern=8 8;" edge="1" parent="1" source="gs4jbbUHdtF3JDuSAHDA-12" target="gs4jbbUHdtF3JDuSAHDA-1">
          <mxGeometry relative="1" as="geometry" />
        </mxCell>
      </root>
    </mxGraphModel>
  </diagram>
</mxfile>
